<?xml version="1.0" standalone="no"?>
<!DOCTYPE svg PUBLIC "-//W3C//DTD SVG 20010904//EN"
 "http://www.w3.org/TR/2001/REC-SVG-20010904/DTD/svg10.dtd">
<svg version="1.0" xmlns="http://www.w3.org/2000/svg"
 width="300.000000pt" height="300.000000pt" viewBox="0 0 300.000000 300.000000"
 preserveAspectRatio="xMidYMid meet">
<metadata>
Panda Blog
</metadata>
<g transform="translate(0.000000,300.000000) scale(0.100000,-0.100000)"
fill="#dae2ec" stroke="none">
<path d="M946 2697 c-66 -21 -71 -25 -107 -82 -21 -33 -38 -67 -38 -76 -2 -32
42 -115 85 -161 24 -26 44 -44 44 -39 0 7 123 110 231 192 l47 36 -19 30 c-28
43 -110 110 -144 116 -18 3 -59 -4 -99 -16z m122 -37 c18 -11 30 -25 26 -31
-3 -6 3 -17 15 -25 30 -22 26 -49 -12 -78 -41 -31 -53 -32 -69 -6 -7 11 -19
20 -26 20 -8 0 -2 -14 15 -37 18 -23 24 -38 16 -40 -6 -2 -33 -20 -58 -40
l-47 -35 -29 28 c-17 16 -25 32 -20 37 5 5 -1 19 -15 32 -30 30 -30 47 5 114
l27 53 48 -53 c38 -42 41 -45 16 -12 -17 24 -30 48 -28 55 4 10 64 34 93 37 6
0 25 -8 43 -19z"/>
<path d="M2005 2706 c-54 -23 -167 -146 -135 -146 6 0 72 -50 145 -110 l135
-110 35 37 c20 21 49 66 66 101 l29 64 -40 67 -41 68 -73 22 c-86 24 -82 24
-121 7z m88 -37 c64 -18 62 -28 -25 -122 l-47 -50 -35 27 c-41 31 -45 49 -17
73 11 9 17 21 14 26 -6 10 45 56 62 57 6 0 27 -5 48 -11z m-144 -46 c-12 -21
-28 -45 -36 -53 -11 -12 -13 -11 -13 7 0 18 52 83 67 83 2 0 -5 -17 -18 -37z
m255 -19 c29 -51 33 -91 13 -118 -11 -16 -18 -17 -38 -7 l-24 12 23 -17 c28
-21 28 -32 0 -55 -30 -26 -42 -24 -98 18 l-49 37 26 35 c33 44 114 141 118
141 2 0 15 -21 29 -46z"/>
<path d="M1169 2330 l-105 -59 -56 -123 -56 -123 19 -99 c11 -55 21 -100 22
-101 1 -1 21 -8 44 -17 l43 -16 10 41 c25 100 42 130 153 279 l118 156 -44 60
-44 60 -104 -58z m141 -56 c0 -5 -13 -23 -30 -39 -33 -32 -33 -43 0 -25 21 11
20 9 -5 -24 -31 -41 -39 -45 -30 -14 6 18 4 20 -11 14 -11 -4 -31 -10 -46 -13
-14 -3 -40 -20 -58 -38 l-32 -33 33 -16 c30 -15 34 -15 51 1 31 28 30 8 -2
-22 -17 -16 -30 -25 -30 -19 0 5 -9 -4 -20 -21 -11 -16 -20 -38 -20 -47 0 -10
-5 -18 -11 -18 -10 0 -109 46 -117 55 -2 2 9 25 23 52 15 26 40 79 55 117 l28
69 27 -27 27 -27 31 20 c35 23 32 26 -9 11 -19 -7 -30 -7 -40 1 -21 17 -2 36
76 74 l65 32 22 -26 c13 -14 23 -31 23 -37z m-100 -118 c0 -8 -11 -28 -25 -43
l-24 -28 -1 33 c0 30 12 42 48 51 1 1 2 -5 2 -13z m-134 -221 c8 -21 -29 -86
-44 -76 -13 8 -33 106 -24 115 7 8 62 -24 68 -39z"/>
<path d="M1756 2327 l-43 -62 121 -160 c113 -149 123 -167 140 -236 l19 -76
46 17 46 18 17 100 18 100 -56 123 -56 124 -104 57 -104 56 -44 -61z m185 -59
c18 -12 21 -19 13 -28 -9 -9 -24 -7 -62 6 -49 18 -51 18 -71 0 -17 -15 -23
-16 -36 -6 -22 18 -18 48 10 76 l25 25 48 -28 c27 -15 59 -35 73 -45z m86
-112 c12 -28 23 -57 23 -65 0 -8 12 -27 26 -42 l26 -27 -53 -31 c-54 -31 -89
-39 -89 -21 0 5 -11 26 -25 46 -14 20 -25 41 -25 46 0 4 16 16 35 25 l35 17
-26 27 c-14 15 -21 28 -15 30 7 3 7 9 1 19 -8 13 -10 12 -10 -2 0 -22 0 -22
-61 -2 -54 18 -55 20 -34 48 15 20 16 20 58 -1 l43 -21 24 25 24 25 10 -23 c5
-13 20 -46 33 -73z m-107 -30 c0 -35 -23 -50 -42 -28 -28 32 -31 47 -3 17 20
-23 23 -24 11 -5 -22 33 -20 40 9 40 20 0 25 -5 25 -24z m145 -203 c-7 -50
-32 -83 -46 -61 -4 7 -6 15 -3 19 2 4 0 10 -6 14 -29 18 3 74 43 75 16 0 17
-6 12 -47z"/>
<path d="M800 1970 c0 -79 2 -141 4 -139 7 7 9 269 2 276 -3 4 -6 -58 -6 -137z"/>
<path d="M1422 2058 l-102 -31 20 -31 c11 -17 33 -52 47 -78 26 -44 30 -47 88
-58 45 -9 77 -9 120 -1 32 6 60 11 61 11 6 0 95 153 91 156 -5 5 -210 64 -217
63 -3 -1 -51 -15 -108 -31z m261 -35 c-5 -2 -35 -7 -68 -12 l-60 -9 62 -1 c34
0 64 -4 67 -9 8 -13 -42 -85 -61 -88 -10 -2 -34 -7 -53 -12 -42 -10 -113 5
-103 22 4 6 -1 5 -10 -3 -10 -8 -19 -12 -21 -10 -15 20 -46 79 -46 88 0 7 23
11 63 12 l62 2 -65 10 -65 10 79 16 c72 15 87 15 154 1 40 -8 69 -16 65 -17z"/>
<path d="M2272 1829 c-2 -43 -7 -50 -69 -111 -48 -46 -101 -82 -183 -126 -115
-61 -123 -69 -185 -164 -34 -54 -6 -27 40 37 25 36 50 65 54 65 5 0 49 23 99
50 50 28 93 50 96 50 17 0 1 -32 -39 -79 -49 -58 -59 -78 -20 -41 24 22 37 16
14 -7 -6 -6 -9 -17 -7 -25 3 -7 16 6 33 32 15 25 61 97 102 162 68 106 74 120
70 160 l-4 43 -1 -46z"/>
<path d="M798 1795 c-3 -4 39 -78 94 -166 55 -88 103 -158 106 -155 2 3 -3 17
-12 32 -22 32 -16 41 9 14 10 -11 23 -20 28 -20 6 0 -1 12 -15 28 -13 15 -37
43 -51 63 -23 30 -24 36 -10 36 10 0 38 -12 63 -26 25 -15 62 -35 84 -46 42
-22 74 -50 124 -110 26 -32 24 -27 -9 23 -39 58 -51 67 -168 132 -88 48 -142
85 -177 122 -29 29 -53 59 -56 66 -2 7 -6 10 -10 7z"/>
<path d="M1415 1703 c-66 -7 -141 -11 -167 -8 -27 3 -48 3 -48 0 0 -3 10 -22
23 -43 13 -20 46 -79 73 -129 27 -51 51 -93 55 -93 11 0 -4 65 -18 73 -7 5
-11 12 -8 18 4 5 1 9 -6 9 -7 0 -9 9 -6 22 4 15 -3 32 -25 56 -23 27 -27 37
-17 42 43 23 407 31 459 10 3 -1 22 -1 43 0 45 2 47 -9 6 -60 -17 -21 -28 -43
-25 -48 6 -11 -18 -65 -26 -57 -2 3 -5 -11 -5 -30 0 -19 1 -35 3 -35 3 0 144
260 144 266 0 3 -15 2 -34 -1 -28 -6 -201 6 -281 19 -11 2 -74 -3 -140 -11z"/>
<path d="M927 1332 c-110 -171 -193 -352 -231 -502 l-32 -124 42 -121 c71
-203 48 -178 219 -245 83 -33 154 -60 158 -60 5 0 28 13 52 30 41 28 45 29 77
16 18 -8 98 -24 177 -37 l145 -22 150 22 c83 13 163 29 179 38 28 14 31 13 78
-20 l49 -34 157 62 157 62 53 149 53 149 -26 115 c-33 140 -132 356 -243 528
-60 92 -75 110 -85 98 -6 -8 -48 -22 -93 -30 -84 -16 -176 -54 -203 -85 -8 -9
-61 -31 -117 -49 l-102 -33 -103 31 c-57 18 -112 40 -123 50 -38 34 -140 77
-213 89 -40 7 -79 19 -86 27 -12 11 -25 -5 -89 -104z m204 43 c20 -3 74 -28
119 -56 46 -28 121 -63 167 -78 99 -33 124 -51 72 -51 -73 0 -258 -66 -300
-106 -33 -32 -37 -27 -41 56 -2 30 -6 48 -10 40 -5 -14 -65 -256 -72 -290 -6
-33 -20 -66 -39 -95 -18 -26 -15 -25 21 10 35 32 42 45 42 77 0 46 30 96 91
154 32 31 71 52 144 80 95 37 105 38 215 38 109 -1 120 -3 210 -38 138 -55
240 -157 240 -240 0 -36 6 -48 40 -81 41 -40 56 -42 20 -2 -11 12 -18 27 -15
35 2 7 0 10 -5 7 -6 -4 -10 7 -10 24 0 17 5 32 10 32 6 1 13 2 18 3 4 1 34 8
67 15 68 14 148 42 141 48 -3 3 -59 -9 -126 -27 -67 -17 -123 -30 -125 -28 -6
6 -65 251 -65 269 0 11 -4 19 -10 19 -6 0 -10 -26 -10 -58 0 -32 -3 -61 -6
-64 -3 -3 -16 5 -30 17 -33 30 -197 94 -263 102 -28 3 -54 9 -56 13 -4 7 90
44 165 65 14 4 32 13 40 20 26 23 124 77 155 87 17 5 55 12 84 15 l55 6 -27
-29 c-15 -16 -42 -49 -61 -74 -18 -25 -38 -44 -44 -43 -5 1 -8 -7 -5 -17 3
-11 6 -20 8 -20 1 0 33 38 70 85 60 74 70 83 79 68 6 -10 49 -103 97 -208 49
-107 94 -191 102 -193 16 -3 22 -17 57 -132 12 -41 27 -85 31 -98 6 -16 5 -24
-5 -28 -8 -3 -12 -13 -9 -24 3 -10 -2 -31 -10 -47 -9 -15 -25 -62 -37 -103
-12 -41 -29 -83 -37 -92 -9 -10 -73 -40 -144 -68 -122 -48 -130 -50 -157 -36
-49 25 -56 41 -28 60 14 9 30 16 36 16 5 0 10 7 10 15 0 17 37 54 67 65 15 6
23 19 25 42 5 55 -13 152 -33 174 -21 23 -24 41 -8 46 6 2 1 12 -11 23 l-22
20 5 -45 c3 -25 16 -89 28 -143 11 -54 19 -100 16 -103 -3 -3 -19 2 -36 10
-42 22 -44 21 -39 -25 l4 -42 -73 -35 c-66 -31 -72 -36 -56 -48 16 -12 16 -13
-10 -14 -16 0 -26 4 -22 10 8 13 7 13 -153 -4 -115 -12 -151 -12 -260 0 -155
17 -173 17 -152 4 11 -7 5 -10 -24 -10 -37 0 -38 1 -20 14 10 8 17 16 14 18
-3 2 -35 18 -72 36 -62 29 -68 35 -68 62 0 38 35 54 95 45 22 -3 65 -8 95 -10
54 -4 54 -4 8 4 -26 4 -50 10 -53 13 -25 24 143 61 285 62 128 2 304 -24 327
-47 14 -14 11 -16 -28 -25 -28 -6 -35 -10 -19 -11 14 0 43 6 65 13 22 8 55 12
75 10 29 -3 22 3 -45 35 l-80 40 -267 0 -266 1 -123 -55 c-67 -31 -124 -54
-126 -51 -2 2 4 44 13 92 20 107 28 184 19 184 -3 0 -15 -5 -26 -10 -22 -12
-26 -32 -4 -24 11 5 15 -1 15 -19 0 -14 -6 -27 -14 -30 -8 -3 -16 -28 -20 -61
-4 -31 -11 -58 -16 -61 -16 -10 11 -64 45 -93 18 -15 35 -36 39 -48 3 -11 20
-27 38 -35 17 -8 31 -18 30 -23 0 -5 -17 -20 -38 -32 l-39 -23 -124 49 c-68
27 -132 57 -142 66 -11 10 -31 56 -45 103 -14 47 -30 90 -35 95 -5 6 -9 20 -9
33 0 27 26 36 91 31 l44 -3 -2 -40 c-2 -40 -2 -40 11 10 7 28 12 51 12 52 -1
0 -37 -3 -81 -7 -44 -4 -84 -6 -88 -3 -16 10 8 82 65 197 68 136 83 170 68
161 -11 -7 -13 6 -4 29 8 22 25 20 18 -1 -3 -10 2 -5 11 10 9 16 14 31 11 35
-3 3 -6 0 -6 -6 0 -7 -5 -12 -10 -12 -6 0 -5 8 2 19 7 11 16 18 20 15 4 -3 5
2 2 10 -6 16 22 76 35 76 5 0 12 11 15 24 6 26 56 116 56 102 0 -5 7 -3 15 4
8 6 19 9 26 5 8 -5 9 -1 4 14 -6 21 -6 21 27 7 18 -8 49 -17 69 -21z m396
-1046 c37 0 91 2 118 5 34 4 45 3 34 -4 -40 -24 -239 -24 -239 1 0 6 4 8 9 4
6 -3 41 -6 78 -6z"/>
<path d="M1180 879 c81 -29 181 -37 410 -34 157 2 219 6 265 19 84 24 88 26
83 31 -2 3 -27 -2 -54 -9 -123 -36 -572 -36 -683 0 -67 21 -84 16 -21 -7z"/>
<path d="M1130 779 c75 -34 158 -48 320 -55 234 -9 370 7 519 61 8 3 12 8 9
10 -2 3 -38 -6 -79 -19 -163 -53 -587 -51 -729 3 -69 27 -100 26 -40 0z"/>
<path d="M1165 710 c-27 -10 -43 -19 -35 -20 10 0 6 -6 -10 -15 -24 -14 -24
-14 20 -15 25 0 61 -4 80 -9 19 -5 55 -11 80 -14 l44 -6 -54 49 c-30 27 -59
49 -65 49 -5 0 -32 -9 -60 -19z m88 -25 c7 -17 -8 -29 -29 -21 -12 5 -13 8 -2
20 17 19 24 20 31 1z"/>
<path d="M1790 679 c-44 -41 -50 -49 -30 -45 14 4 69 9 123 13 53 3 97 9 97
12 0 17 -99 72 -128 71 -4 0 -32 -23 -62 -51z m74 -11 c-5 -8 -44 -11 -44 -4
0 2 3 11 6 20 5 12 9 13 24 4 10 -7 16 -16 14 -20z"/>
<path d="M2201 707 c1 -7 5 -23 9 -37 l8 -25 1 27 c1 14 7 28 13 30 7 3 2 7
-10 10 -13 4 -22 2 -21 -5z"/>
<path d="M1451 670 l-83 -38 68 -7 c38 -3 118 -5 177 -3 l109 3 -89 42 c-48
23 -90 42 -93 42 -3 -1 -43 -18 -89 -39z m115 -5 c16 -8 38 -15 49 -15 17 0
17 -2 5 -10 -19 -12 -140 -13 -159 -1 -11 7 -5 11 22 16 21 4 40 11 43 16 7
12 7 12 40 -6z"/>
<path d="M840 517 c19 -19 208 -99 223 -94 9 3 -72 40 -203 94 -31 13 -33 13
-20 0z"/>
<path d="M2115 473 c-60 -26 -104 -48 -98 -50 7 -3 49 12 94 31 45 20 88 36
95 36 6 0 17 7 24 15 19 23 5 19 -115 -32z"/>
<path d="M1200 505 c0 -15 22 -55 30 -55 20 0 11 47 -10 53 -11 3 -20 4 -20 2z"/>
<path d="M1450 498 c0 -10 151 -8 240 2 48 5 25 7 -87 6 -84 -1 -153 -4 -153
-8z"/>
</g>
</svg>
